P3
9 9
255
 0  0  0    0  0  0    0  0  0   115  0 215   155  0 215   155  0 215   155  0 215   155  0 215   155  0 215
 0  0  0    0 150  107    0  0  0    0  0  0   155  0 215   155  0 215   155  0 215   155  0 215   155  0 215
 0  0  0    0  0  0    0 115  207    0  0  0   155  0 215   155  0 215   155  0 215   155  0 215   155  0 215
155  0 215    0  0  0    0  0  0    0  0  0   155  0 215   155  0 215   155  0 215   155  0 215   155  0 215
155  0 215    0  0  0    0  0  0    0  0  0   155  0 215   155  0 215   155  0 215   155  0 215   155  0 215
155  0 215    0  0  0    0  0  0    0  0  0   155  0 215   155  0 215   155  0 215   155  0 215   155  0 215
155  0 215    0  0  0    0  0  0    0  0  0   155  0 215   155  0 215   155  0 215   155  0 215   155  0 215
155  0 215    0  0  0    0  0  0    0  0  0   155  0 215   155  0 215   155  0 215   155  0 215   155  0 215
155  0 215    0  0  0    0  0  0    0  0  0   155  0 215   155  0 215   155  0 215   155  0 215   155  0 215