P3
3 2
255
0  0  0   255  0  0
0  250  0   0  0  255
0  0  254   254  255  0