P3
2 3
255
0  0  0   255  0  0   5  5  5
0  255  0   0  0  255   6  6  6